<svg width="86" height="65" viewBox="0 0 86 65" fill="none" xmlns="http://www.w3.org/2000/svg">
<path d="M30.9551 43V23.3945H32.7188V41.3184H40.2246V43H30.9551ZM54.0605 38.1875C54.0605 38.8529 53.9329 39.4772 53.6777 40.0605C53.4316 40.6439 53.0898 41.1543 52.6523 41.5918C52.2148 42.0293 51.6999 42.3757 51.1074 42.6309C50.5241 42.877 49.8997 43 49.2344 43H43.0273V23.3945H49.2344C49.8997 23.3945 50.5241 23.5221 51.1074 23.7773C51.6999 24.0234 52.2148 24.3652 52.6523 24.8027C53.0898 25.2402 53.4316 25.7552 53.6777 26.3477C53.9329 26.931 54.0605 27.5553 54.0605 28.2207V28.4121C54.0605 28.877 53.9967 29.3236 53.8691 29.752C53.7507 30.1712 53.5775 30.5632 53.3496 30.9277C53.1217 31.2923 52.8529 31.625 52.543 31.9258C52.2331 32.2174 51.8867 32.4635 51.5039 32.6641C51.8867 32.8646 52.2331 33.1152 52.543 33.416C52.8529 33.7077 53.1217 34.0404 53.3496 34.4141C53.5775 34.7786 53.7507 35.1751 53.8691 35.6035C53.9967 36.0228 54.0605 36.4648 54.0605 36.9297V38.1875ZM52.2969 36.6426C52.2969 36.2051 52.2148 35.7995 52.0508 35.4258C51.8867 35.043 51.6589 34.7103 51.3672 34.4277C51.0846 34.1452 50.752 33.9219 50.3691 33.7578C49.9954 33.5938 49.5898 33.5117 49.1523 33.5117H44.791V41.3184H49.1523C49.5898 41.3184 49.9954 41.2363 50.3691 41.0723C50.752 40.9082 51.0846 40.6849 51.3672 40.4023C51.6589 40.1198 51.8867 39.7917 52.0508 39.418C52.2148 39.0352 52.2969 38.625 52.2969 38.1875V36.6426ZM52.2969 28.2207C52.2969 27.7832 52.2148 27.3776 52.0508 27.0039C51.8867 26.6211 51.6589 26.2884 51.3672 26.0059C51.0846 25.7142 50.752 25.4863 50.3691 25.3223C49.9954 25.1582 49.5898 25.0762 49.1523 25.0762H44.791V31.8301H49.1523C49.5898 31.8301 49.9954 31.748 50.3691 31.584C50.752 31.4199 51.0846 31.1966 51.3672 30.9141C51.6589 30.6224 51.8867 30.2897 52.0508 29.916C52.2148 29.5332 52.2969 29.123 52.2969 28.6855V28.2207Z" fill="black"/>
<line x1="43.2929" y1="64.2929" x2="84.82" y2="22.7658" stroke="#F35321" stroke-width="2"/>
<line x1="1.29289" y1="42.82" x2="42.82" y2="1.29289" stroke="#F35321" stroke-width="2"/>
</svg>
